<svg width="64" height="64" viewBox="0 0 64 64" fill="none" xmlns="http://www.w3.org/2000/svg">
<path d="M45.3333 48C42.3733 48 40 50.3733 40 53.3333C40 54.7478 40.5619 56.1044 41.5621 57.1046C42.5622 58.1048 43.9188 58.6667 45.3333 58.6667C46.7478 58.6667 48.1043 58.1048 49.1045 57.1046C50.1047 56.1044 50.6666 54.7478 50.6666 53.3333C50.6666 51.9188 50.1047 50.5623 49.1045 49.5621C48.1043 48.5619 46.7478 48 45.3333 48ZM2.66663 5.33333V10.6667H7.99996L17.6 30.9067L13.9733 37.44C13.5733 38.1867 13.3333 39.0667 13.3333 40C13.3333 41.4145 13.8952 42.771 14.8954 43.7712C15.8956 44.7714 17.2521 45.3333 18.6666 45.3333H50.6666V40H19.7866C19.6098 40 19.4402 39.9298 19.3152 39.8047C19.1902 39.6797 19.12 39.5101 19.12 39.3333C19.12 39.2 19.1466 39.0933 19.2 39.0133L21.6 34.6667H41.4666C43.4666 34.6667 45.2266 33.5467 46.1333 31.92L55.68 14.6667C55.8666 14.24 56 13.7867 56 13.3333C56 12.6261 55.719 11.9478 55.2189 11.4477C54.7188 10.9476 54.0405 10.6667 53.3333 10.6667H13.8933L11.3866 5.33333M18.6666 48C15.7066 48 13.3333 50.3733 13.3333 53.3333C13.3333 54.7478 13.8952 56.1044 14.8954 57.1046C15.8956 58.1048 17.2521 58.6667 18.6666 58.6667C20.0811 58.6667 21.4377 58.1048 22.4379 57.1046C23.4381 56.1044 24 54.7478 24 53.3333C24 51.9188 23.4381 50.5623 22.4379 49.5621C21.4377 48.5619 20.0811 48 18.6666 48Z" fill="#FC8A06"/>
</svg>
