<svg width="107" height="107" viewBox="0 0 107 107" fill="none" xmlns="http://www.w3.org/2000/svg">
<path d="M80.5175 102.542H87.9183C91.6633 102.542 94.7396 99.6438 95.1854 95.9879L102.542 22.5146H80.25V4.45833H71.4671V22.5146H49.3092L50.6467 32.9471C58.2704 35.0425 65.4038 38.8321 69.6838 43.0229C76.1038 49.3538 80.5175 55.9075 80.5175 66.6075V102.542ZM4.45834 98.0833V93.625H71.4671V98.0833C71.4671 100.491 69.4608 102.542 66.875 102.542H8.91667C6.46459 102.542 4.45834 100.491 4.45834 98.0833ZM71.4671 66.875C71.4671 31.2083 4.45834 31.2083 4.45834 66.875H71.4671ZM4.45834 75.7917H71.3333V84.7083H4.45834V75.7917Z" fill="#FF6B00"/>
</svg>
